Coordinates
version=1
nRows=20
nColumns=34
inDegrees=yes

Units are S.I. units (second, meters, Newtons, ...)
If the header above contains a line with 'inDegrees', this indicates whether rotational values are in degrees (yes) or radians (no).

endheader
time	pelvis_tilt	pelvis_list	pelvis_rotation	pelvis_tx	pelvis_ty	pelvis_tz	hip_flexion_r	hip_adduction_r	hip_rotation_r	knee_angle_r	ankle_angle_r	subtalar_angle_r	mtp_angle_r	hip_flexion_l	hip_adduction_l	hip_rotation_l	knee_angle_l	ankle_angle_l	subtalar_angle_l	mtp_angle_l	lumbar_extension	lumbar_bending	lumbar_rotation	arm_flex_r	arm_add_r	arm_rot_r	elbow_flex_r	pro_sup_r	arm_flex_l	arm_add_l	arm_rot_l	elbow_flex_l	pro_sup_l
      0.00000000	      1.13483157	      0.41719060	      1.13743070	      0.66533398	      1.14229970	     -0.06415612	     -3.52271163	     -5.83348941	     -8.00808947	      3.56094207	     -1.11730453	    -20.12388596	      0.00000000	     -3.46698703	     -3.55405223	     -2.14044116	      2.07000531	      7.46255354	     -6.95251663	      0.00000000	     -7.78633843	      4.93562051	      2.54358748	     -2.53802553	     -9.57990611	     -2.62180100	     29.35903787	     77.98990475	    130.64516053	    -41.05357308	     39.93859898	     63.14242132	     64.93866573
      0.01666670	     -2.91858324	     -1.16704045	      1.26208261	      0.66811499	      1.13247485	     -0.06586674	      0.44151991	     -4.41945784	     -9.66946550	      3.46985472	      0.72339778	    -15.93188149	      0.00000000	      0.96924915	     -5.12539375	     -2.34075352	      1.13808040	      7.67728084	     -5.03930424	      0.00000000	     -3.43018531	      5.54254795	     -2.60233761	     -0.06479127	     -9.92629691	     -3.27491075	     30.55284338	     81.64002774	    143.48945471	    -40.52957461	     51.00118883	     51.03922908	     66.74141492
      0.03333330	     -4.33018137	     -1.56852489	      1.07958201	      0.66317446	      1.13077768	     -0.06741793	      1.99797249	     -4.08442767	    -10.41190404	      3.21605857	      0.82941038	    -16.66521850	      0.00000000	      2.80895533	     -5.42369733	     -3.04126613	      1.12645826	      7.98774718	     -4.28995341	      0.00000000	     -2.23560663	      5.56534831	     -3.26636993	      0.99422426	    -10.27373979	     -4.14207561	     30.78588772	     81.72840726	    146.65748865	    -38.91336080	     49.30631802	     51.85989001	     66.78781049
      0.05000000	     -4.75283002	     -1.75108899	      1.17160434	      0.66361328	      1.12964163	     -0.06737593	      2.28370892	     -3.84267229	    -11.00041797	      2.68450151	      0.49815473	    -16.87878672	      0.00000000	      2.96749780	     -5.61313902	     -4.07565498	      0.27875042	      8.18377621	     -2.35352666	      0.00000000	     -1.13711328	      5.40767331	     -2.92528639	      0.56019741	     -8.86322325	     -9.48427429	     30.81525245	     82.83967943	    145.54637617	    -36.15849721	     44.73508132	     51.52841986	     68.26229795
      0.06666670	     -5.13056306	     -1.96086752	      1.23574759	      0.66370702	      1.12882429	     -0.06752707	      2.53158066	     -3.56476507	    -11.78880520	      2.33600879	      0.30851656	    -17.11959445	      0.00000000	      3.31297754	     -5.78921843	     -4.13426048	      0.00000000	      8.10773938	     -2.49526194	      0.00000000	     -0.62848830	      5.71294777	     -2.82650977	      0.29054448	     -8.56508441	     -9.52343067	     30.96058313	     83.05223425	    146.79917115	    -35.34654482	     44.02537161	     51.61174911	     68.33903133
      0.08333330	     -5.25663813	     -1.83145311	      1.17326910	      0.66374358	      1.12775794	     -0.06759722	      2.33630577	     -3.72740239	    -12.74596777	      2.02333724	     -0.66999988	    -18.13965067	      0.00000000	      3.48641064	     -5.60752309	     -3.89872350	      0.07073088	      7.81838373	     -3.45308223	      0.00000000	     -0.00752272	      5.50900825	     -1.76353667	     -0.56280592	     -8.26463671	    -10.37564518	     30.67231147	     85.55282364	    146.57727017	    -32.55099561	     40.23238406	     49.00579172	     68.99393553
      0.10000000	     -5.43285932	     -1.76921913	      1.40160027	      0.66933501	      1.12549942	     -0.06597171	      2.16136500	     -3.71843272	    -13.67943633	      1.66064474	     -0.91283020	    -18.37051800	      0.00000000	      3.64232031	     -5.57557876	     -3.82998308	      0.23206564	      8.07174219	     -3.27481024	      0.00000000	      0.58052608	      5.71057553	     -1.73593243	     -1.08631667	     -8.11093759	    -10.49313517	     30.47300165	     85.85521819	    147.86333673	    -32.18466042	     39.51765187	     49.11208595	     69.02998912
      0.11666670	     -5.38065119	     -1.74674657	      1.42196621	      0.66918839	      1.12480575	     -0.06630468	      1.77124168	     -3.72601435	    -14.42937007	      1.41784373	     -1.38214286	    -18.80344046	      0.00000000	      3.53504987	     -5.60437568	     -3.68107594	      0.51319759	      8.81253985	     -3.18829775	      0.00000000	      0.97374252	      5.60602346	     -1.00407386	     -1.70801614	     -8.12627966	    -11.69983232	     29.62935120	     92.83180239	    147.58959971	    -29.70087147	     35.70523378	     46.50449803	     70.64920152
      0.13333330	     -5.61442520	     -1.71042793	      1.49154062	      0.66901774	      1.12443606	     -0.06639654	      1.82157812	     -3.73084658	    -15.26534398	      1.29616840	     -1.75013905	    -19.02302646	      0.00000000	      3.74670337	     -5.60660531	     -3.80466766	      0.64200309	      8.54385765	     -3.13076644	      0.00000000	      1.50069554	      5.83967630	     -1.37732369	     -1.80199956	     -8.13854711	    -11.80880331	     29.64274806	     93.14098608	    148.03722999	    -29.89199649	     35.41347175	     46.24027730	     70.72235252
      0.15000000	     -5.79610751	     -1.74851972	      1.61889486	      0.66864064	      1.12565125	     -0.06654245	      1.87068066	     -3.64265887	    -15.47655242	      1.05798241	     -2.25469151	    -19.59206274	      0.00000000	      3.94545647	     -5.66905452	     -3.27060145	      0.80909889	      8.75851328	     -3.72924165	      0.00000000	      2.16218383	      5.93636690	     -1.24264192	     -1.81595742	     -8.22903295	    -12.93448590	     27.99765319	    100.05023612	    148.79538035	    -28.43112904	     34.17930461	     44.52981540	     72.53870394
      0.16666670	     -5.96137210	     -1.92345116	      1.94249253	      0.66858565	      1.12551588	     -0.06701745	      1.91491460	     -3.38437125	    -16.37098735	      0.88282551	     -2.63834294	    -19.71301627	      0.00000000	      4.18764937	     -5.86239489	     -3.10667805	      0.90675882	      8.82986065	     -3.29213640	      0.00000000	      2.62521587	      6.37862814	     -1.75332894	     -2.18177768	     -8.33412400	    -13.18059622	     28.37339497	    100.62366267	    149.84188167	    -28.16702527	     33.86301594	     44.20840178	     72.71441769
      0.18333330	     -5.98831685	     -2.08351375	      1.95205211	      0.67404915	      1.12593716	     -0.06509895	      1.86310880	     -3.11332326	    -16.82628634	      0.76007904	     -2.96015453	    -19.70567258	      0.00000000	      4.14377690	     -6.05916171	     -3.23372752	      0.88845324	      8.77007517	     -3.26551675	      0.00000000	      3.02042713	      6.68106620	     -1.37060734	     -2.68938155	     -8.42804647	    -13.91185382	     28.01338728	    101.51301538	    150.82552849	    -27.19304539	     34.36033458	     42.04246526	     73.08885426
      0.20000000	     -5.83709885	     -2.11355627	      1.94183188	      0.66865986	      1.12401627	     -0.06730877	      1.73778763	     -3.02414619	    -16.96740942	      0.64305309	     -3.26846873	    -20.13429401	      0.00000000	      3.86230084	     -6.05204755	     -3.07228526	      0.61715172	      8.68352316	     -3.39666323	      0.00000000	      2.61060674	      6.75670846	     -1.07257199	     -2.61130024	     -8.10243351	    -16.67537383	     27.91218613	    106.43977198	    153.05016107	    -26.37768465	     36.75146695	     39.56869961	     75.40465792
      0.21666670	     -6.35982269	     -2.07876991	      1.87257696	      0.66869696	      1.12527334	     -0.06710574	      2.41527221	     -3.11258831	    -17.11962720	      0.69627788	     -3.04554381	    -19.94999088	      0.00000000	      4.45116699	     -5.99162127	     -3.26776064	      0.59040659	      8.52049338	     -3.40354036	      0.00000000	      3.24582383	      6.87003002	     -1.24383628	     -2.47837825	     -7.95456753	    -16.71813345	     27.68737296	    107.01356615	    153.66990052	    -26.29455292	     36.24960221	     38.98346823	     75.53063270
      0.23333330	     -6.48442223	     -2.18614334	      1.86023014	      0.67422147	      1.12791345	     -0.06499438	      2.41517053	     -2.89078759	    -17.15676250	      0.43638507	     -3.08320323	    -19.80213902	      0.00000000	      4.39287755	     -6.12528709	     -3.22359183	      0.36928772	      8.37083437	     -3.24566613	      0.00000000	      3.51460763	      7.13595800	     -1.18156206	     -2.78665314	     -7.89019732	    -16.77650469	     27.51179290	    107.16179481	    154.29983648	    -26.13781691	     36.04630610	     38.97793618	     75.55781735
      0.25000000	     -6.59124765	     -2.32139229	      1.77620723	      0.67436186	      1.12730249	     -0.06492323	      2.41790371	     -2.69891190	    -17.04204646	      0.26279622	     -2.84914539	    -19.52292788	      0.00000000	      4.36486336	     -6.27059372	     -3.35997648	      0.23319907	      8.37404821	     -3.16831707	      0.00000000	      3.79086464	      7.35993590	     -1.22406294	     -3.01410034	     -7.79196392	    -16.87694883	     27.51015043	    107.33323370	    155.08589561	    -25.83871190	     35.80122213	     38.99236075	     75.58291867
      0.26666670	     -6.73069021	     -2.30761916	      1.71756163	      0.67424152	      1.12701721	     -0.06507075	      2.53877496	     -2.71650601	    -17.27277516	      0.32050691	     -2.19667040	    -18.64471282	      0.00000000	      4.44827487	     -6.25382783	     -3.74033989	      0.19120006	      8.48505710	     -2.87303478	      0.00000000	      3.85705436	      7.44287028	     -1.46639614	     -3.12449748	     -7.63921948	    -17.22652104	     28.02264725	    107.92690240	    156.45617507	    -25.38522173	     35.21163903	     38.06402565	     75.68707785
      0.28333330	     -6.81345671	     -2.39103848	      1.74123337	      0.67442923	      1.12672729	     -0.06537872	      2.50791611	     -2.57902254	    -16.94811917	      0.11387542	     -2.03087764	    -18.46956476	      0.00000000	      4.40058982	     -6.33116291	     -3.61638584	      0.00000000	      8.43898708	     -2.74804255	      0.00000000	      4.03773227	      7.68312561	     -1.42453325	     -3.21928051	     -7.70937931	    -17.29746459	     27.99762793	    107.98503847	    156.75596866	    -25.21284853	     35.17099237	     38.01506332	     75.70222478
      0.30000000	     -6.89824159	     -2.53548583	      1.66065946	      0.67426172	      1.12668249	     -0.06531962	      2.67076326	     -2.40526794	    -16.80152494	      0.22717633	     -0.93313796	    -17.15378806	      0.00000000	      4.43988345	     -6.53144112	     -3.95916391	      0.00000000	      8.51603989	     -2.33975177	      0.00000000	      4.05119293	      7.93358027	     -1.36156463	     -3.29151306	     -7.77306669	    -17.97760782	     28.50210054	    108.64063834	    157.99184739	    -24.51657607	     34.92704899	     35.81314008	     75.89073118
      0.31666670	     -6.88878623	     -2.66865627	      1.78716251	      0.67435045	      1.12646301	     -0.06541801	      2.58340181	     -2.20051086	    -16.36448949	      0.05812502	     -0.59646802	    -16.99737398	      0.00000000	      4.42576761	     -6.71079866	     -3.76285754	      0.00000000	      8.56794447	     -2.21957369	      0.00000000	      4.15031650	      8.14288677	     -1.41444930	     -3.33601980	     -7.78052121	    -18.08778761	     28.51073888	    108.72796567	    158.12291026	    -24.26135455	     34.92606805	     35.67105560	     75.92421150
